<?xml version="1.0" encoding="utf-8" standalone="no"?>
<!DOCTYPE svg PUBLIC "-//W3C//DTD SVG 1.1//EN"
  "http://www.w3.org/Graphics/SVG/1.1/DTD/svg11.dtd">
<svg xmlns:xlink="http://www.w3.org/1999/xlink" width="617.279375pt" height="312.809687pt" viewBox="0 0 617.279375 312.809687" xmlns="http://www.w3.org/2000/svg" version="1.1">
 <metadata>
  <rdf:RDF xmlns:dc="http://purl.org/dc/elements/1.1/" xmlns:cc="http://creativecommons.org/ns#" xmlns:rdf="http://www.w3.org/1999/02/22-rdf-syntax-ns#">
   <cc:Work>
    <dc:type rdf:resource="http://purl.org/dc/dcmitype/StillImage"/>
    <dc:date>2025-04-08T18:20:51.786895</dc:date>
    <dc:format>image/svg+xml</dc:format>
    <dc:creator>
     <cc:Agent>
      <dc:title>Matplotlib v3.10.1, https://matplotlib.org/</dc:title>
     </cc:Agent>
    </dc:creator>
   </cc:Work>
  </rdf:RDF>
 </metadata>
 <defs>
  <style type="text/css">*{stroke-linejoin: round; stroke-linecap: butt}</style>
 </defs>
 <g id="figure_1">
  <g id="patch_1">
   <path d="M 0 312.809687 
L 617.279375 312.809687 
L 617.279375 0 
L 0 0 
z
" style="fill: #0d0d0d"/>
  </g>
  <g id="axes_1">
   <g id="patch_2">
    <path d="M 52.079375 273.317812 
L 610.079375 273.317812 
L 610.079375 23.837812 
L 52.079375 23.837812 
z
" style="fill: #0d0d0d"/>
   </g>
   <g id="matplotlib.axis_1">
    <g id="xtick_1">
     <g id="line2d_1">
      <path d="M 109.09848 273.317812 
L 109.09848 23.837812 
" clip-path="url(#p9ae92bacbd)" style="fill: none; stroke-dasharray: 2.96,1.28; stroke-dashoffset: 0; stroke: #b0b0b0; stroke-opacity: 0.3; stroke-width: 0.8"/>
     </g>
     <g id="line2d_2">
      <defs>
       <path id="m8657233b11" d="M 0 0 
L 0 3.5 
" style="stroke: #ffffff; stroke-width: 0.8"/>
      </defs>
      <g>
       <use xlink:href="#m8657233b11" x="109.09848" y="273.317812" style="fill: #ffffff; stroke: #ffffff; stroke-width: 0.8"/>
      </g>
     </g>
     <g id="text_1">
      <!-- 45000 -->
      <g style="fill: #ffffff" transform="translate(93.19223 287.91625) scale(0.1 -0.1)">
       <defs>
        <path id="DejaVuSans-34" d="M 2419 4116 
L 825 1625 
L 2419 1625 
L 2419 4116 
z
M 2253 4666 
L 3047 4666 
L 3047 1625 
L 3713 1625 
L 3713 1100 
L 3047 1100 
L 3047 0 
L 2419 0 
L 2419 1100 
L 313 1100 
L 313 1709 
L 2253 4666 
z
" transform="scale(0.015625)"/>
        <path id="DejaVuSans-35" d="M 691 4666 
L 3169 4666 
L 3169 4134 
L 1269 4134 
L 1269 2991 
Q 1406 3038 1543 3061 
Q 1681 3084 1819 3084 
Q 2600 3084 3056 2656 
Q 3513 2228 3513 1497 
Q 3513 744 3044 326 
Q 2575 -91 1722 -91 
Q 1428 -91 1123 -41 
Q 819 9 494 109 
L 494 744 
Q 775 591 1075 516 
Q 1375 441 1709 441 
Q 2250 441 2565 725 
Q 2881 1009 2881 1497 
Q 2881 1984 2565 2268 
Q 2250 2553 1709 2553 
Q 1456 2553 1204 2497 
Q 953 2441 691 2322 
L 691 4666 
z
" transform="scale(0.015625)"/>
        <path id="DejaVuSans-30" d="M 2034 4250 
Q 1547 4250 1301 3770 
Q 1056 3291 1056 2328 
Q 1056 1369 1301 889 
Q 1547 409 2034 409 
Q 2525 409 2770 889 
Q 3016 1369 3016 2328 
Q 3016 3291 2770 3770 
Q 2525 4250 2034 4250 
z
M 2034 4750 
Q 2819 4750 3233 4129 
Q 3647 3509 3647 2328 
Q 3647 1150 3233 529 
Q 2819 -91 2034 -91 
Q 1250 -91 836 529 
Q 422 1150 422 2328 
Q 422 3509 836 4129 
Q 1250 4750 2034 4750 
z
" transform="scale(0.015625)"/>
       </defs>
       <use xlink:href="#DejaVuSans-34"/>
       <use xlink:href="#DejaVuSans-35" transform="translate(63.623047 0)"/>
       <use xlink:href="#DejaVuSans-30" transform="translate(127.246094 0)"/>
       <use xlink:href="#DejaVuSans-30" transform="translate(190.869141 0)"/>
       <use xlink:href="#DejaVuSans-30" transform="translate(254.492188 0)"/>
      </g>
     </g>
    </g>
    <g id="xtick_2">
     <g id="line2d_3">
      <path d="M 177.433936 273.317812 
L 177.433936 23.837812 
" clip-path="url(#p9ae92bacbd)" style="fill: none; stroke-dasharray: 2.96,1.28; stroke-dashoffset: 0; stroke: #b0b0b0; stroke-opacity: 0.3; stroke-width: 0.8"/>
     </g>
     <g id="line2d_4">
      <g>
       <use xlink:href="#m8657233b11" x="177.433936" y="273.317812" style="fill: #ffffff; stroke: #ffffff; stroke-width: 0.8"/>
      </g>
     </g>
     <g id="text_2">
      <!-- 50000 -->
      <g style="fill: #ffffff" transform="translate(161.527686 287.91625) scale(0.1 -0.1)">
       <use xlink:href="#DejaVuSans-35"/>
       <use xlink:href="#DejaVuSans-30" transform="translate(63.623047 0)"/>
       <use xlink:href="#DejaVuSans-30" transform="translate(127.246094 0)"/>
       <use xlink:href="#DejaVuSans-30" transform="translate(190.869141 0)"/>
       <use xlink:href="#DejaVuSans-30" transform="translate(254.492188 0)"/>
      </g>
     </g>
    </g>
    <g id="xtick_3">
     <g id="line2d_5">
      <path d="M 245.769392 273.317812 
L 245.769392 23.837812 
" clip-path="url(#p9ae92bacbd)" style="fill: none; stroke-dasharray: 2.96,1.28; stroke-dashoffset: 0; stroke: #b0b0b0; stroke-opacity: 0.3; stroke-width: 0.8"/>
     </g>
     <g id="line2d_6">
      <g>
       <use xlink:href="#m8657233b11" x="245.769392" y="273.317812" style="fill: #ffffff; stroke: #ffffff; stroke-width: 0.8"/>
      </g>
     </g>
     <g id="text_3">
      <!-- 55000 -->
      <g style="fill: #ffffff" transform="translate(229.863142 287.91625) scale(0.1 -0.1)">
       <use xlink:href="#DejaVuSans-35"/>
       <use xlink:href="#DejaVuSans-35" transform="translate(63.623047 0)"/>
       <use xlink:href="#DejaVuSans-30" transform="translate(127.246094 0)"/>
       <use xlink:href="#DejaVuSans-30" transform="translate(190.869141 0)"/>
       <use xlink:href="#DejaVuSans-30" transform="translate(254.492188 0)"/>
      </g>
     </g>
    </g>
    <g id="xtick_4">
     <g id="line2d_7">
      <path d="M 314.104848 273.317812 
L 314.104848 23.837812 
" clip-path="url(#p9ae92bacbd)" style="fill: none; stroke-dasharray: 2.96,1.28; stroke-dashoffset: 0; stroke: #b0b0b0; stroke-opacity: 0.3; stroke-width: 0.8"/>
     </g>
     <g id="line2d_8">
      <g>
       <use xlink:href="#m8657233b11" x="314.104848" y="273.317812" style="fill: #ffffff; stroke: #ffffff; stroke-width: 0.8"/>
      </g>
     </g>
     <g id="text_4">
      <!-- 60000 -->
      <g style="fill: #ffffff" transform="translate(298.198598 287.91625) scale(0.1 -0.1)">
       <defs>
        <path id="DejaVuSans-36" d="M 2113 2584 
Q 1688 2584 1439 2293 
Q 1191 2003 1191 1497 
Q 1191 994 1439 701 
Q 1688 409 2113 409 
Q 2538 409 2786 701 
Q 3034 994 3034 1497 
Q 3034 2003 2786 2293 
Q 2538 2584 2113 2584 
z
M 3366 4563 
L 3366 3988 
Q 3128 4100 2886 4159 
Q 2644 4219 2406 4219 
Q 1781 4219 1451 3797 
Q 1122 3375 1075 2522 
Q 1259 2794 1537 2939 
Q 1816 3084 2150 3084 
Q 2853 3084 3261 2657 
Q 3669 2231 3669 1497 
Q 3669 778 3244 343 
Q 2819 -91 2113 -91 
Q 1303 -91 875 529 
Q 447 1150 447 2328 
Q 447 3434 972 4092 
Q 1497 4750 2381 4750 
Q 2619 4750 2861 4703 
Q 3103 4656 3366 4563 
z
" transform="scale(0.015625)"/>
       </defs>
       <use xlink:href="#DejaVuSans-36"/>
       <use xlink:href="#DejaVuSans-30" transform="translate(63.623047 0)"/>
       <use xlink:href="#DejaVuSans-30" transform="translate(127.246094 0)"/>
       <use xlink:href="#DejaVuSans-30" transform="translate(190.869141 0)"/>
       <use xlink:href="#DejaVuSans-30" transform="translate(254.492188 0)"/>
      </g>
     </g>
    </g>
    <g id="xtick_5">
     <g id="line2d_9">
      <path d="M 382.440304 273.317812 
L 382.440304 23.837812 
" clip-path="url(#p9ae92bacbd)" style="fill: none; stroke-dasharray: 2.96,1.28; stroke-dashoffset: 0; stroke: #b0b0b0; stroke-opacity: 0.3; stroke-width: 0.8"/>
     </g>
     <g id="line2d_10">
      <g>
       <use xlink:href="#m8657233b11" x="382.440304" y="273.317812" style="fill: #ffffff; stroke: #ffffff; stroke-width: 0.8"/>
      </g>
     </g>
     <g id="text_5">
      <!-- 65000 -->
      <g style="fill: #ffffff" transform="translate(366.534054 287.91625) scale(0.1 -0.1)">
       <use xlink:href="#DejaVuSans-36"/>
       <use xlink:href="#DejaVuSans-35" transform="translate(63.623047 0)"/>
       <use xlink:href="#DejaVuSans-30" transform="translate(127.246094 0)"/>
       <use xlink:href="#DejaVuSans-30" transform="translate(190.869141 0)"/>
       <use xlink:href="#DejaVuSans-30" transform="translate(254.492188 0)"/>
      </g>
     </g>
    </g>
    <g id="xtick_6">
     <g id="line2d_11">
      <path d="M 450.77576 273.317812 
L 450.77576 23.837812 
" clip-path="url(#p9ae92bacbd)" style="fill: none; stroke-dasharray: 2.96,1.28; stroke-dashoffset: 0; stroke: #b0b0b0; stroke-opacity: 0.3; stroke-width: 0.8"/>
     </g>
     <g id="line2d_12">
      <g>
       <use xlink:href="#m8657233b11" x="450.77576" y="273.317812" style="fill: #ffffff; stroke: #ffffff; stroke-width: 0.8"/>
      </g>
     </g>
     <g id="text_6">
      <!-- 70000 -->
      <g style="fill: #ffffff" transform="translate(434.86951 287.91625) scale(0.1 -0.1)">
       <defs>
        <path id="DejaVuSans-37" d="M 525 4666 
L 3525 4666 
L 3525 4397 
L 1831 0 
L 1172 0 
L 2766 4134 
L 525 4134 
L 525 4666 
z
" transform="scale(0.015625)"/>
       </defs>
       <use xlink:href="#DejaVuSans-37"/>
       <use xlink:href="#DejaVuSans-30" transform="translate(63.623047 0)"/>
       <use xlink:href="#DejaVuSans-30" transform="translate(127.246094 0)"/>
       <use xlink:href="#DejaVuSans-30" transform="translate(190.869141 0)"/>
       <use xlink:href="#DejaVuSans-30" transform="translate(254.492188 0)"/>
      </g>
     </g>
    </g>
    <g id="xtick_7">
     <g id="line2d_13">
      <path d="M 519.111216 273.317812 
L 519.111216 23.837812 
" clip-path="url(#p9ae92bacbd)" style="fill: none; stroke-dasharray: 2.96,1.28; stroke-dashoffset: 0; stroke: #b0b0b0; stroke-opacity: 0.3; stroke-width: 0.8"/>
     </g>
     <g id="line2d_14">
      <g>
       <use xlink:href="#m8657233b11" x="519.111216" y="273.317812" style="fill: #ffffff; stroke: #ffffff; stroke-width: 0.8"/>
      </g>
     </g>
     <g id="text_7">
      <!-- 75000 -->
      <g style="fill: #ffffff" transform="translate(503.204966 287.91625) scale(0.1 -0.1)">
       <use xlink:href="#DejaVuSans-37"/>
       <use xlink:href="#DejaVuSans-35" transform="translate(63.623047 0)"/>
       <use xlink:href="#DejaVuSans-30" transform="translate(127.246094 0)"/>
       <use xlink:href="#DejaVuSans-30" transform="translate(190.869141 0)"/>
       <use xlink:href="#DejaVuSans-30" transform="translate(254.492188 0)"/>
      </g>
     </g>
    </g>
    <g id="xtick_8">
     <g id="line2d_15">
      <path d="M 587.446672 273.317812 
L 587.446672 23.837812 
" clip-path="url(#p9ae92bacbd)" style="fill: none; stroke-dasharray: 2.96,1.28; stroke-dashoffset: 0; stroke: #b0b0b0; stroke-opacity: 0.3; stroke-width: 0.8"/>
     </g>
     <g id="line2d_16">
      <g>
       <use xlink:href="#m8657233b11" x="587.446672" y="273.317812" style="fill: #ffffff; stroke: #ffffff; stroke-width: 0.8"/>
      </g>
     </g>
     <g id="text_8">
      <!-- 80000 -->
      <g style="fill: #ffffff" transform="translate(571.540422 287.91625) scale(0.1 -0.1)">
       <defs>
        <path id="DejaVuSans-38" d="M 2034 2216 
Q 1584 2216 1326 1975 
Q 1069 1734 1069 1313 
Q 1069 891 1326 650 
Q 1584 409 2034 409 
Q 2484 409 2743 651 
Q 3003 894 3003 1313 
Q 3003 1734 2745 1975 
Q 2488 2216 2034 2216 
z
M 1403 2484 
Q 997 2584 770 2862 
Q 544 3141 544 3541 
Q 544 4100 942 4425 
Q 1341 4750 2034 4750 
Q 2731 4750 3128 4425 
Q 3525 4100 3525 3541 
Q 3525 3141 3298 2862 
Q 3072 2584 2669 2484 
Q 3125 2378 3379 2068 
Q 3634 1759 3634 1313 
Q 3634 634 3220 271 
Q 2806 -91 2034 -91 
Q 1263 -91 848 271 
Q 434 634 434 1313 
Q 434 1759 690 2068 
Q 947 2378 1403 2484 
z
M 1172 3481 
Q 1172 3119 1398 2916 
Q 1625 2713 2034 2713 
Q 2441 2713 2670 2916 
Q 2900 3119 2900 3481 
Q 2900 3844 2670 4047 
Q 2441 4250 2034 4250 
Q 1625 4250 1398 4047 
Q 1172 3844 1172 3481 
z
" transform="scale(0.015625)"/>
       </defs>
       <use xlink:href="#DejaVuSans-38"/>
       <use xlink:href="#DejaVuSans-30" transform="translate(63.623047 0)"/>
       <use xlink:href="#DejaVuSans-30" transform="translate(127.246094 0)"/>
       <use xlink:href="#DejaVuSans-30" transform="translate(190.869141 0)"/>
       <use xlink:href="#DejaVuSans-30" transform="translate(254.492188 0)"/>
      </g>
     </g>
    </g>
    <g id="text_9">
     <!-- Point Count -->
     <g style="fill: #d3d3d3" transform="translate(296.46125 303.114062) scale(0.12 -0.12)">
      <defs>
       <path id="DejaVuSans-50" d="M 1259 4147 
L 1259 2394 
L 2053 2394 
Q 2494 2394 2734 2622 
Q 2975 2850 2975 3272 
Q 2975 3691 2734 3919 
Q 2494 4147 2053 4147 
L 1259 4147 
z
M 628 4666 
L 2053 4666 
Q 2838 4666 3239 4311 
Q 3641 3956 3641 3272 
Q 3641 2581 3239 2228 
Q 2838 1875 2053 1875 
L 1259 1875 
L 1259 0 
L 628 0 
L 628 4666 
z
" transform="scale(0.015625)"/>
       <path id="DejaVuSans-6f" d="M 1959 3097 
Q 1497 3097 1228 2736 
Q 959 2375 959 1747 
Q 959 1119 1226 758 
Q 1494 397 1959 397 
Q 2419 397 2687 759 
Q 2956 1122 2956 1747 
Q 2956 2369 2687 2733 
Q 2419 3097 1959 3097 
z
M 1959 3584 
Q 2709 3584 3137 3096 
Q 3566 2609 3566 1747 
Q 3566 888 3137 398 
Q 2709 -91 1959 -91 
Q 1206 -91 779 398 
Q 353 888 353 1747 
Q 353 2609 779 3096 
Q 1206 3584 1959 3584 
z
" transform="scale(0.015625)"/>
       <path id="DejaVuSans-69" d="M 603 3500 
L 1178 3500 
L 1178 0 
L 603 0 
L 603 3500 
z
M 603 4863 
L 1178 4863 
L 1178 4134 
L 603 4134 
L 603 4863 
z
" transform="scale(0.015625)"/>
       <path id="DejaVuSans-6e" d="M 3513 2113 
L 3513 0 
L 2938 0 
L 2938 2094 
Q 2938 2591 2744 2837 
Q 2550 3084 2163 3084 
Q 1697 3084 1428 2787 
Q 1159 2491 1159 1978 
L 1159 0 
L 581 0 
L 581 3500 
L 1159 3500 
L 1159 2956 
Q 1366 3272 1645 3428 
Q 1925 3584 2291 3584 
Q 2894 3584 3203 3211 
Q 3513 2838 3513 2113 
z
" transform="scale(0.015625)"/>
       <path id="DejaVuSans-74" d="M 1172 4494 
L 1172 3500 
L 2356 3500 
L 2356 3053 
L 1172 3053 
L 1172 1153 
Q 1172 725 1289 603 
Q 1406 481 1766 481 
L 2356 481 
L 2356 0 
L 1766 0 
Q 1100 0 847 248 
Q 594 497 594 1153 
L 594 3053 
L 172 3053 
L 172 3500 
L 594 3500 
L 594 4494 
L 1172 4494 
z
" transform="scale(0.015625)"/>
       <path id="DejaVuSans-20" transform="scale(0.015625)"/>
       <path id="DejaVuSans-43" d="M 4122 4306 
L 4122 3641 
Q 3803 3938 3442 4084 
Q 3081 4231 2675 4231 
Q 1875 4231 1450 3742 
Q 1025 3253 1025 2328 
Q 1025 1406 1450 917 
Q 1875 428 2675 428 
Q 3081 428 3442 575 
Q 3803 722 4122 1019 
L 4122 359 
Q 3791 134 3420 21 
Q 3050 -91 2638 -91 
Q 1578 -91 968 557 
Q 359 1206 359 2328 
Q 359 3453 968 4101 
Q 1578 4750 2638 4750 
Q 3056 4750 3426 4639 
Q 3797 4528 4122 4306 
z
" transform="scale(0.015625)"/>
       <path id="DejaVuSans-75" d="M 544 1381 
L 544 3500 
L 1119 3500 
L 1119 1403 
Q 1119 906 1312 657 
Q 1506 409 1894 409 
Q 2359 409 2629 706 
Q 2900 1003 2900 1516 
L 2900 3500 
L 3475 3500 
L 3475 0 
L 2900 0 
L 2900 538 
Q 2691 219 2414 64 
Q 2138 -91 1772 -91 
Q 1169 -91 856 284 
Q 544 659 544 1381 
z
M 1991 3584 
L 1991 3584 
z
" transform="scale(0.015625)"/>
      </defs>
      <use xlink:href="#DejaVuSans-50"/>
      <use xlink:href="#DejaVuSans-6f" transform="translate(56.677734 0)"/>
      <use xlink:href="#DejaVuSans-69" transform="translate(117.859375 0)"/>
      <use xlink:href="#DejaVuSans-6e" transform="translate(145.642578 0)"/>
      <use xlink:href="#DejaVuSans-74" transform="translate(209.021484 0)"/>
      <use xlink:href="#DejaVuSans-20" transform="translate(248.230469 0)"/>
      <use xlink:href="#DejaVuSans-43" transform="translate(280.017578 0)"/>
      <use xlink:href="#DejaVuSans-6f" transform="translate(349.841797 0)"/>
      <use xlink:href="#DejaVuSans-75" transform="translate(411.023438 0)"/>
      <use xlink:href="#DejaVuSans-6e" transform="translate(474.402344 0)"/>
      <use xlink:href="#DejaVuSans-74" transform="translate(537.78125 0)"/>
     </g>
    </g>
   </g>
   <g id="matplotlib.axis_2">
    <g id="ytick_1">
     <g id="line2d_17">
      <path d="M 52.079375 265.833412 
L 610.079375 265.833412 
" clip-path="url(#p9ae92bacbd)" style="fill: none; stroke-dasharray: 2.96,1.28; stroke-dashoffset: 0; stroke: #b0b0b0; stroke-opacity: 0.3; stroke-width: 0.8"/>
     </g>
     <g id="line2d_18">
      <defs>
       <path id="m414f4ffee2" d="M 0 0 
L -3.5 0 
" style="stroke: #ffffff; stroke-width: 0.8"/>
      </defs>
      <g>
       <use xlink:href="#m414f4ffee2" x="52.079375" y="265.833412" style="fill: #ffffff; stroke: #ffffff; stroke-width: 0.8"/>
      </g>
     </g>
     <g id="text_10">
      <!-- 0.00 -->
      <g style="fill: #ffffff" transform="translate(22.81375 269.632631) scale(0.1 -0.1)">
       <defs>
        <path id="DejaVuSans-2e" d="M 684 794 
L 1344 794 
L 1344 0 
L 684 0 
L 684 794 
z
" transform="scale(0.015625)"/>
       </defs>
       <use xlink:href="#DejaVuSans-30"/>
       <use xlink:href="#DejaVuSans-2e" transform="translate(63.623047 0)"/>
       <use xlink:href="#DejaVuSans-30" transform="translate(95.410156 0)"/>
       <use xlink:href="#DejaVuSans-30" transform="translate(159.033203 0)"/>
      </g>
     </g>
    </g>
    <g id="ytick_2">
     <g id="line2d_19">
      <path d="M 52.079375 220.473412 
L 610.079375 220.473412 
" clip-path="url(#p9ae92bacbd)" style="fill: none; stroke-dasharray: 2.96,1.28; stroke-dashoffset: 0; stroke: #b0b0b0; stroke-opacity: 0.3; stroke-width: 0.8"/>
     </g>
     <g id="line2d_20">
      <g>
       <use xlink:href="#m414f4ffee2" x="52.079375" y="220.473412" style="fill: #ffffff; stroke: #ffffff; stroke-width: 0.8"/>
      </g>
     </g>
     <g id="text_11">
      <!-- 0.20 -->
      <g style="fill: #ffffff" transform="translate(22.81375 224.272631) scale(0.1 -0.1)">
       <defs>
        <path id="DejaVuSans-32" d="M 1228 531 
L 3431 531 
L 3431 0 
L 469 0 
L 469 531 
Q 828 903 1448 1529 
Q 2069 2156 2228 2338 
Q 2531 2678 2651 2914 
Q 2772 3150 2772 3378 
Q 2772 3750 2511 3984 
Q 2250 4219 1831 4219 
Q 1534 4219 1204 4116 
Q 875 4013 500 3803 
L 500 4441 
Q 881 4594 1212 4672 
Q 1544 4750 1819 4750 
Q 2544 4750 2975 4387 
Q 3406 4025 3406 3419 
Q 3406 3131 3298 2873 
Q 3191 2616 2906 2266 
Q 2828 2175 2409 1742 
Q 1991 1309 1228 531 
z
" transform="scale(0.015625)"/>
       </defs>
       <use xlink:href="#DejaVuSans-30"/>
       <use xlink:href="#DejaVuSans-2e" transform="translate(63.623047 0)"/>
       <use xlink:href="#DejaVuSans-32" transform="translate(95.410156 0)"/>
       <use xlink:href="#DejaVuSans-30" transform="translate(159.033203 0)"/>
      </g>
     </g>
    </g>
    <g id="ytick_3">
     <g id="line2d_21">
      <path d="M 52.079375 175.113412 
L 610.079375 175.113412 
" clip-path="url(#p9ae92bacbd)" style="fill: none; stroke-dasharray: 2.96,1.28; stroke-dashoffset: 0; stroke: #b0b0b0; stroke-opacity: 0.3; stroke-width: 0.8"/>
     </g>
     <g id="line2d_22">
      <g>
       <use xlink:href="#m414f4ffee2" x="52.079375" y="175.113412" style="fill: #ffffff; stroke: #ffffff; stroke-width: 0.8"/>
      </g>
     </g>
     <g id="text_12">
      <!-- 0.40 -->
      <g style="fill: #ffffff" transform="translate(22.81375 178.912631) scale(0.1 -0.1)">
       <use xlink:href="#DejaVuSans-30"/>
       <use xlink:href="#DejaVuSans-2e" transform="translate(63.623047 0)"/>
       <use xlink:href="#DejaVuSans-34" transform="translate(95.410156 0)"/>
       <use xlink:href="#DejaVuSans-30" transform="translate(159.033203 0)"/>
      </g>
     </g>
    </g>
    <g id="ytick_4">
     <g id="line2d_23">
      <path d="M 52.079375 129.753412 
L 610.079375 129.753412 
" clip-path="url(#p9ae92bacbd)" style="fill: none; stroke-dasharray: 2.96,1.28; stroke-dashoffset: 0; stroke: #b0b0b0; stroke-opacity: 0.3; stroke-width: 0.8"/>
     </g>
     <g id="line2d_24">
      <g>
       <use xlink:href="#m414f4ffee2" x="52.079375" y="129.753412" style="fill: #ffffff; stroke: #ffffff; stroke-width: 0.8"/>
      </g>
     </g>
     <g id="text_13">
      <!-- 0.60 -->
      <g style="fill: #ffffff" transform="translate(22.81375 133.552631) scale(0.1 -0.1)">
       <use xlink:href="#DejaVuSans-30"/>
       <use xlink:href="#DejaVuSans-2e" transform="translate(63.623047 0)"/>
       <use xlink:href="#DejaVuSans-36" transform="translate(95.410156 0)"/>
       <use xlink:href="#DejaVuSans-30" transform="translate(159.033203 0)"/>
      </g>
     </g>
    </g>
    <g id="ytick_5">
     <g id="line2d_25">
      <path d="M 52.079375 84.393412 
L 610.079375 84.393412 
" clip-path="url(#p9ae92bacbd)" style="fill: none; stroke-dasharray: 2.96,1.28; stroke-dashoffset: 0; stroke: #b0b0b0; stroke-opacity: 0.3; stroke-width: 0.8"/>
     </g>
     <g id="line2d_26">
      <g>
       <use xlink:href="#m414f4ffee2" x="52.079375" y="84.393412" style="fill: #ffffff; stroke: #ffffff; stroke-width: 0.8"/>
      </g>
     </g>
     <g id="text_14">
      <!-- 0.80 -->
      <g style="fill: #ffffff" transform="translate(22.81375 88.192631) scale(0.1 -0.1)">
       <use xlink:href="#DejaVuSans-30"/>
       <use xlink:href="#DejaVuSans-2e" transform="translate(63.623047 0)"/>
       <use xlink:href="#DejaVuSans-38" transform="translate(95.410156 0)"/>
       <use xlink:href="#DejaVuSans-30" transform="translate(159.033203 0)"/>
      </g>
     </g>
    </g>
    <g id="ytick_6">
     <g id="line2d_27">
      <path d="M 52.079375 39.033412 
L 610.079375 39.033412 
" clip-path="url(#p9ae92bacbd)" style="fill: none; stroke-dasharray: 2.96,1.28; stroke-dashoffset: 0; stroke: #b0b0b0; stroke-opacity: 0.3; stroke-width: 0.8"/>
     </g>
     <g id="line2d_28">
      <g>
       <use xlink:href="#m414f4ffee2" x="52.079375" y="39.033412" style="fill: #ffffff; stroke: #ffffff; stroke-width: 0.8"/>
      </g>
     </g>
     <g id="text_15">
      <!-- 1.00 -->
      <g style="fill: #ffffff" transform="translate(22.81375 42.832631) scale(0.1 -0.1)">
       <defs>
        <path id="DejaVuSans-31" d="M 794 531 
L 1825 531 
L 1825 4091 
L 703 3866 
L 703 4441 
L 1819 4666 
L 2450 4666 
L 2450 531 
L 3481 531 
L 3481 0 
L 794 0 
L 794 531 
z
" transform="scale(0.015625)"/>
       </defs>
       <use xlink:href="#DejaVuSans-31"/>
       <use xlink:href="#DejaVuSans-2e" transform="translate(63.623047 0)"/>
       <use xlink:href="#DejaVuSans-30" transform="translate(95.410156 0)"/>
       <use xlink:href="#DejaVuSans-30" transform="translate(159.033203 0)"/>
      </g>
     </g>
    </g>
    <g id="text_16">
     <!-- Cook Time (ms) -->
     <g style="fill: #d3d3d3" transform="translate(16.318125 195.730312) rotate(-90) scale(0.12 -0.12)">
      <defs>
       <path id="DejaVuSans-6b" d="M 581 4863 
L 1159 4863 
L 1159 1991 
L 2875 3500 
L 3609 3500 
L 1753 1863 
L 3688 0 
L 2938 0 
L 1159 1709 
L 1159 0 
L 581 0 
L 581 4863 
z
" transform="scale(0.015625)"/>
       <path id="DejaVuSans-54" d="M -19 4666 
L 3928 4666 
L 3928 4134 
L 2272 4134 
L 2272 0 
L 1638 0 
L 1638 4134 
L -19 4134 
L -19 4666 
z
" transform="scale(0.015625)"/>
       <path id="DejaVuSans-6d" d="M 3328 2828 
Q 3544 3216 3844 3400 
Q 4144 3584 4550 3584 
Q 5097 3584 5394 3201 
Q 5691 2819 5691 2113 
L 5691 0 
L 5113 0 
L 5113 2094 
Q 5113 2597 4934 2840 
Q 4756 3084 4391 3084 
Q 3944 3084 3684 2787 
Q 3425 2491 3425 1978 
L 3425 0 
L 2847 0 
L 2847 2094 
Q 2847 2600 2669 2842 
Q 2491 3084 2119 3084 
Q 1678 3084 1418 2786 
Q 1159 2488 1159 1978 
L 1159 0 
L 581 0 
L 581 3500 
L 1159 3500 
L 1159 2956 
Q 1356 3278 1631 3431 
Q 1906 3584 2284 3584 
Q 2666 3584 2933 3390 
Q 3200 3197 3328 2828 
z
" transform="scale(0.015625)"/>
       <path id="DejaVuSans-65" d="M 3597 1894 
L 3597 1613 
L 953 1613 
Q 991 1019 1311 708 
Q 1631 397 2203 397 
Q 2534 397 2845 478 
Q 3156 559 3463 722 
L 3463 178 
Q 3153 47 2828 -22 
Q 2503 -91 2169 -91 
Q 1331 -91 842 396 
Q 353 884 353 1716 
Q 353 2575 817 3079 
Q 1281 3584 2069 3584 
Q 2775 3584 3186 3129 
Q 3597 2675 3597 1894 
z
M 3022 2063 
Q 3016 2534 2758 2815 
Q 2500 3097 2075 3097 
Q 1594 3097 1305 2825 
Q 1016 2553 972 2059 
L 3022 2063 
z
" transform="scale(0.015625)"/>
       <path id="DejaVuSans-28" d="M 1984 4856 
Q 1566 4138 1362 3434 
Q 1159 2731 1159 2009 
Q 1159 1288 1364 580 
Q 1569 -128 1984 -844 
L 1484 -844 
Q 1016 -109 783 600 
Q 550 1309 550 2009 
Q 550 2706 781 3412 
Q 1013 4119 1484 4856 
L 1984 4856 
z
" transform="scale(0.015625)"/>
       <path id="DejaVuSans-73" d="M 2834 3397 
L 2834 2853 
Q 2591 2978 2328 3040 
Q 2066 3103 1784 3103 
Q 1356 3103 1142 2972 
Q 928 2841 928 2578 
Q 928 2378 1081 2264 
Q 1234 2150 1697 2047 
L 1894 2003 
Q 2506 1872 2764 1633 
Q 3022 1394 3022 966 
Q 3022 478 2636 193 
Q 2250 -91 1575 -91 
Q 1294 -91 989 -36 
Q 684 19 347 128 
L 347 722 
Q 666 556 975 473 
Q 1284 391 1588 391 
Q 1994 391 2212 530 
Q 2431 669 2431 922 
Q 2431 1156 2273 1281 
Q 2116 1406 1581 1522 
L 1381 1569 
Q 847 1681 609 1914 
Q 372 2147 372 2553 
Q 372 3047 722 3315 
Q 1072 3584 1716 3584 
Q 2034 3584 2315 3537 
Q 2597 3491 2834 3397 
z
" transform="scale(0.015625)"/>
       <path id="DejaVuSans-29" d="M 513 4856 
L 1013 4856 
Q 1481 4119 1714 3412 
Q 1947 2706 1947 2009 
Q 1947 1309 1714 600 
Q 1481 -109 1013 -844 
L 513 -844 
Q 928 -128 1133 580 
Q 1338 1288 1338 2009 
Q 1338 2731 1133 3434 
Q 928 4138 513 4856 
z
" transform="scale(0.015625)"/>
      </defs>
      <use xlink:href="#DejaVuSans-43"/>
      <use xlink:href="#DejaVuSans-6f" transform="translate(69.824219 0)"/>
      <use xlink:href="#DejaVuSans-6f" transform="translate(131.005859 0)"/>
      <use xlink:href="#DejaVuSans-6b" transform="translate(192.1875 0)"/>
      <use xlink:href="#DejaVuSans-20" transform="translate(250.097656 0)"/>
      <use xlink:href="#DejaVuSans-54" transform="translate(281.884766 0)"/>
      <use xlink:href="#DejaVuSans-69" transform="translate(339.84375 0)"/>
      <use xlink:href="#DejaVuSans-6d" transform="translate(367.626953 0)"/>
      <use xlink:href="#DejaVuSans-65" transform="translate(465.039062 0)"/>
      <use xlink:href="#DejaVuSans-20" transform="translate(526.5625 0)"/>
      <use xlink:href="#DejaVuSans-28" transform="translate(558.349609 0)"/>
      <use xlink:href="#DejaVuSans-6d" transform="translate(597.363281 0)"/>
      <use xlink:href="#DejaVuSans-73" transform="translate(694.775391 0)"/>
      <use xlink:href="#DejaVuSans-29" transform="translate(746.875 0)"/>
     </g>
    </g>
   </g>
   <g id="line2d_29">
    <path d="M 52.079375 259.029412 
L 56.726186 259.709812 
L 61.372997 261.070612 
L 66.019808 260.390212 
L 70.666619 260.617012 
L 75.327097 260.617012 
L 79.973908 259.483012 
L 84.620719 259.256212 
L 89.26753 254.947012 
L 93.928008 260.617012 
L 98.574819 258.802612 
L 103.22163 258.122212 
L 107.868441 259.709812 
L 112.528919 261.070612 
L 117.17573 260.617012 
L 121.822541 261.070612 
L 126.469352 259.936612 
L 131.116163 261.524212 
L 135.776642 261.524212 
L 140.423453 261.070612 
L 145.070264 259.256212 
L 149.717075 261.070612 
L 154.377553 260.163412 
L 159.024364 254.493412 
L 163.671175 261.297412 
L 168.317986 261.297412 
L 172.978464 261.070612 
L 177.625275 260.617012 
L 182.272086 260.163412 
L 186.918897 260.390212 
L 191.579375 257.895412 
L 196.226186 258.349012 
L 200.872997 259.256212 
L 205.519808 260.843812 
L 210.166619 260.163412 
L 214.827097 254.947012 
L 219.473908 260.843812 
L 224.120719 260.843812 
L 228.76753 260.617012 
L 233.428008 259.709812 
L 238.074819 259.483012 
L 242.72163 259.936612 
L 247.368441 261.070612 
L 252.028919 259.483012 
L 256.67573 260.163412 
L 261.322541 259.936612 
L 265.969352 260.843812 
L 270.616163 255.400612 
L 275.276642 259.709812 
L 279.923453 260.163412 
L 284.570264 258.575812 
L 289.217075 259.936612 
L 293.877553 259.709812 
L 298.524364 260.843812 
L 303.171175 257.668612 
L 307.817986 259.709812 
L 312.478464 260.163412 
L 317.125275 260.390212 
L 321.772086 261.524212 
L 326.418897 260.163412 
L 331.079375 258.122212 
L 335.726186 260.163412 
L 340.372997 259.483012 
L 345.019808 260.390212 
L 349.666619 260.390212 
L 354.327097 258.575812 
L 358.973908 259.709812 
L 363.620719 261.297412 
L 368.26753 260.163412 
L 372.928008 260.617012 
L 377.574819 259.483012 
L 382.22163 259.936612 
L 386.868441 260.617012 
L 391.528919 261.070612 
L 396.17573 260.617012 
L 400.822541 260.390212 
L 405.469352 259.029412 
L 410.116163 259.936612 
L 414.776642 259.936612 
L 419.423453 260.390212 
L 424.070264 259.936612 
L 428.717075 260.843812 
L 433.377553 259.936612 
L 438.024364 261.524212 
L 442.671175 260.163412 
L 447.317986 260.163412 
L 451.978464 259.483012 
L 456.625275 255.400612 
L 461.272086 257.668612 
L 465.918897 261.070612 
L 470.579375 258.349012 
L 475.226186 259.709812 
L 479.872997 260.390212 
L 484.519808 259.256212 
L 489.166619 259.936612 
L 493.827097 35.177812 
L 498.473908 254.947012 
L 503.120719 256.761412 
L 507.76753 258.349012 
L 512.428008 256.081012 
L 517.074819 259.936612 
L 521.72163 260.163412 
L 526.368441 260.163412 
L 531.028919 260.390212 
L 535.67573 260.163412 
L 540.322541 259.936612 
L 544.969352 259.936612 
L 549.616163 260.163412 
L 554.276642 261.297412 
L 558.923453 261.297412 
L 563.570264 259.483012 
L 568.217075 260.617012 
L 572.877553 259.483012 
L 577.524364 260.843812 
L 582.171175 260.617012 
L 586.817986 260.163412 
L 591.478464 260.390212 
L 596.125275 261.070612 
L 600.772086 259.256212 
L 605.418897 260.163412 
L 610.079375 259.256212 
" clip-path="url(#p9ae92bacbd)" style="fill: none; stroke: #400080; stroke-linecap: square"/>
    <defs>
     <path id="m329d4c27d8" d="M 0 1 
C 0.265203 1 0.51958 0.894634 0.707107 0.707107 
C 0.894634 0.51958 1 0.265203 1 0 
C 1 -0.265203 0.894634 -0.51958 0.707107 -0.707107 
C 0.51958 -0.894634 0.265203 -1 0 -1 
C -0.265203 -1 -0.51958 -0.894634 -0.707107 -0.707107 
C -0.894634 -0.51958 -1 -0.265203 -1 0 
C -1 0.265203 -0.894634 0.51958 -0.707107 0.707107 
C -0.51958 0.894634 -0.265203 1 0 1 
z
" style="stroke: #400080"/>
    </defs>
    <g clip-path="url(#p9ae92bacbd)">
     <use xlink:href="#m329d4c27d8" x="52.079375" y="259.029412" style="fill: #400080; stroke: #400080"/>
     <use xlink:href="#m329d4c27d8" x="56.726186" y="259.709812" style="fill: #400080; stroke: #400080"/>
     <use xlink:href="#m329d4c27d8" x="61.372997" y="261.070612" style="fill: #400080; stroke: #400080"/>
     <use xlink:href="#m329d4c27d8" x="66.019808" y="260.390212" style="fill: #400080; stroke: #400080"/>
     <use xlink:href="#m329d4c27d8" x="70.666619" y="260.617012" style="fill: #400080; stroke: #400080"/>
     <use xlink:href="#m329d4c27d8" x="75.327097" y="260.617012" style="fill: #400080; stroke: #400080"/>
     <use xlink:href="#m329d4c27d8" x="79.973908" y="259.483012" style="fill: #400080; stroke: #400080"/>
     <use xlink:href="#m329d4c27d8" x="84.620719" y="259.256212" style="fill: #400080; stroke: #400080"/>
     <use xlink:href="#m329d4c27d8" x="89.26753" y="254.947012" style="fill: #400080; stroke: #400080"/>
     <use xlink:href="#m329d4c27d8" x="93.928008" y="260.617012" style="fill: #400080; stroke: #400080"/>
     <use xlink:href="#m329d4c27d8" x="98.574819" y="258.802612" style="fill: #400080; stroke: #400080"/>
     <use xlink:href="#m329d4c27d8" x="103.22163" y="258.122212" style="fill: #400080; stroke: #400080"/>
     <use xlink:href="#m329d4c27d8" x="107.868441" y="259.709812" style="fill: #400080; stroke: #400080"/>
     <use xlink:href="#m329d4c27d8" x="112.528919" y="261.070612" style="fill: #400080; stroke: #400080"/>
     <use xlink:href="#m329d4c27d8" x="117.17573" y="260.617012" style="fill: #400080; stroke: #400080"/>
     <use xlink:href="#m329d4c27d8" x="121.822541" y="261.070612" style="fill: #400080; stroke: #400080"/>
     <use xlink:href="#m329d4c27d8" x="126.469352" y="259.936612" style="fill: #400080; stroke: #400080"/>
     <use xlink:href="#m329d4c27d8" x="131.116163" y="261.524212" style="fill: #400080; stroke: #400080"/>
     <use xlink:href="#m329d4c27d8" x="135.776642" y="261.524212" style="fill: #400080; stroke: #400080"/>
     <use xlink:href="#m329d4c27d8" x="140.423453" y="261.070612" style="fill: #400080; stroke: #400080"/>
     <use xlink:href="#m329d4c27d8" x="145.070264" y="259.256212" style="fill: #400080; stroke: #400080"/>
     <use xlink:href="#m329d4c27d8" x="149.717075" y="261.070612" style="fill: #400080; stroke: #400080"/>
     <use xlink:href="#m329d4c27d8" x="154.377553" y="260.163412" style="fill: #400080; stroke: #400080"/>
     <use xlink:href="#m329d4c27d8" x="159.024364" y="254.493412" style="fill: #400080; stroke: #400080"/>
     <use xlink:href="#m329d4c27d8" x="163.671175" y="261.297412" style="fill: #400080; stroke: #400080"/>
     <use xlink:href="#m329d4c27d8" x="168.317986" y="261.297412" style="fill: #400080; stroke: #400080"/>
     <use xlink:href="#m329d4c27d8" x="172.978464" y="261.070612" style="fill: #400080; stroke: #400080"/>
     <use xlink:href="#m329d4c27d8" x="177.625275" y="260.617012" style="fill: #400080; stroke: #400080"/>
     <use xlink:href="#m329d4c27d8" x="182.272086" y="260.163412" style="fill: #400080; stroke: #400080"/>
     <use xlink:href="#m329d4c27d8" x="186.918897" y="260.390212" style="fill: #400080; stroke: #400080"/>
     <use xlink:href="#m329d4c27d8" x="191.579375" y="257.895412" style="fill: #400080; stroke: #400080"/>
     <use xlink:href="#m329d4c27d8" x="196.226186" y="258.349012" style="fill: #400080; stroke: #400080"/>
     <use xlink:href="#m329d4c27d8" x="200.872997" y="259.256212" style="fill: #400080; stroke: #400080"/>
     <use xlink:href="#m329d4c27d8" x="205.519808" y="260.843812" style="fill: #400080; stroke: #400080"/>
     <use xlink:href="#m329d4c27d8" x="210.166619" y="260.163412" style="fill: #400080; stroke: #400080"/>
     <use xlink:href="#m329d4c27d8" x="214.827097" y="254.947012" style="fill: #400080; stroke: #400080"/>
     <use xlink:href="#m329d4c27d8" x="219.473908" y="260.843812" style="fill: #400080; stroke: #400080"/>
     <use xlink:href="#m329d4c27d8" x="224.120719" y="260.843812" style="fill: #400080; stroke: #400080"/>
     <use xlink:href="#m329d4c27d8" x="228.76753" y="260.617012" style="fill: #400080; stroke: #400080"/>
     <use xlink:href="#m329d4c27d8" x="233.428008" y="259.709812" style="fill: #400080; stroke: #400080"/>
     <use xlink:href="#m329d4c27d8" x="238.074819" y="259.483012" style="fill: #400080; stroke: #400080"/>
     <use xlink:href="#m329d4c27d8" x="242.72163" y="259.936612" style="fill: #400080; stroke: #400080"/>
     <use xlink:href="#m329d4c27d8" x="247.368441" y="261.070612" style="fill: #400080; stroke: #400080"/>
     <use xlink:href="#m329d4c27d8" x="252.028919" y="259.483012" style="fill: #400080; stroke: #400080"/>
     <use xlink:href="#m329d4c27d8" x="256.67573" y="260.163412" style="fill: #400080; stroke: #400080"/>
     <use xlink:href="#m329d4c27d8" x="261.322541" y="259.936612" style="fill: #400080; stroke: #400080"/>
     <use xlink:href="#m329d4c27d8" x="265.969352" y="260.843812" style="fill: #400080; stroke: #400080"/>
     <use xlink:href="#m329d4c27d8" x="270.616163" y="255.400612" style="fill: #400080; stroke: #400080"/>
     <use xlink:href="#m329d4c27d8" x="275.276642" y="259.709812" style="fill: #400080; stroke: #400080"/>
     <use xlink:href="#m329d4c27d8" x="279.923453" y="260.163412" style="fill: #400080; stroke: #400080"/>
     <use xlink:href="#m329d4c27d8" x="284.570264" y="258.575812" style="fill: #400080; stroke: #400080"/>
     <use xlink:href="#m329d4c27d8" x="289.217075" y="259.936612" style="fill: #400080; stroke: #400080"/>
     <use xlink:href="#m329d4c27d8" x="293.877553" y="259.709812" style="fill: #400080; stroke: #400080"/>
     <use xlink:href="#m329d4c27d8" x="298.524364" y="260.843812" style="fill: #400080; stroke: #400080"/>
     <use xlink:href="#m329d4c27d8" x="303.171175" y="257.668612" style="fill: #400080; stroke: #400080"/>
     <use xlink:href="#m329d4c27d8" x="307.817986" y="259.709812" style="fill: #400080; stroke: #400080"/>
     <use xlink:href="#m329d4c27d8" x="312.478464" y="260.163412" style="fill: #400080; stroke: #400080"/>
     <use xlink:href="#m329d4c27d8" x="317.125275" y="260.390212" style="fill: #400080; stroke: #400080"/>
     <use xlink:href="#m329d4c27d8" x="321.772086" y="261.524212" style="fill: #400080; stroke: #400080"/>
     <use xlink:href="#m329d4c27d8" x="326.418897" y="260.163412" style="fill: #400080; stroke: #400080"/>
     <use xlink:href="#m329d4c27d8" x="331.079375" y="258.122212" style="fill: #400080; stroke: #400080"/>
     <use xlink:href="#m329d4c27d8" x="335.726186" y="260.163412" style="fill: #400080; stroke: #400080"/>
     <use xlink:href="#m329d4c27d8" x="340.372997" y="259.483012" style="fill: #400080; stroke: #400080"/>
     <use xlink:href="#m329d4c27d8" x="345.019808" y="260.390212" style="fill: #400080; stroke: #400080"/>
     <use xlink:href="#m329d4c27d8" x="349.666619" y="260.390212" style="fill: #400080; stroke: #400080"/>
     <use xlink:href="#m329d4c27d8" x="354.327097" y="258.575812" style="fill: #400080; stroke: #400080"/>
     <use xlink:href="#m329d4c27d8" x="358.973908" y="259.709812" style="fill: #400080; stroke: #400080"/>
     <use xlink:href="#m329d4c27d8" x="363.620719" y="261.297412" style="fill: #400080; stroke: #400080"/>
     <use xlink:href="#m329d4c27d8" x="368.26753" y="260.163412" style="fill: #400080; stroke: #400080"/>
     <use xlink:href="#m329d4c27d8" x="372.928008" y="260.617012" style="fill: #400080; stroke: #400080"/>
     <use xlink:href="#m329d4c27d8" x="377.574819" y="259.483012" style="fill: #400080; stroke: #400080"/>
     <use xlink:href="#m329d4c27d8" x="382.22163" y="259.936612" style="fill: #400080; stroke: #400080"/>
     <use xlink:href="#m329d4c27d8" x="386.868441" y="260.617012" style="fill: #400080; stroke: #400080"/>
     <use xlink:href="#m329d4c27d8" x="391.528919" y="261.070612" style="fill: #400080; stroke: #400080"/>
     <use xlink:href="#m329d4c27d8" x="396.17573" y="260.617012" style="fill: #400080; stroke: #400080"/>
     <use xlink:href="#m329d4c27d8" x="400.822541" y="260.390212" style="fill: #400080; stroke: #400080"/>
     <use xlink:href="#m329d4c27d8" x="405.469352" y="259.029412" style="fill: #400080; stroke: #400080"/>
     <use xlink:href="#m329d4c27d8" x="410.116163" y="259.936612" style="fill: #400080; stroke: #400080"/>
     <use xlink:href="#m329d4c27d8" x="414.776642" y="259.936612" style="fill: #400080; stroke: #400080"/>
     <use xlink:href="#m329d4c27d8" x="419.423453" y="260.390212" style="fill: #400080; stroke: #400080"/>
     <use xlink:href="#m329d4c27d8" x="424.070264" y="259.936612" style="fill: #400080; stroke: #400080"/>
     <use xlink:href="#m329d4c27d8" x="428.717075" y="260.843812" style="fill: #400080; stroke: #400080"/>
     <use xlink:href="#m329d4c27d8" x="433.377553" y="259.936612" style="fill: #400080; stroke: #400080"/>
     <use xlink:href="#m329d4c27d8" x="438.024364" y="261.524212" style="fill: #400080; stroke: #400080"/>
     <use xlink:href="#m329d4c27d8" x="442.671175" y="260.163412" style="fill: #400080; stroke: #400080"/>
     <use xlink:href="#m329d4c27d8" x="447.317986" y="260.163412" style="fill: #400080; stroke: #400080"/>
     <use xlink:href="#m329d4c27d8" x="451.978464" y="259.483012" style="fill: #400080; stroke: #400080"/>
     <use xlink:href="#m329d4c27d8" x="456.625275" y="255.400612" style="fill: #400080; stroke: #400080"/>
     <use xlink:href="#m329d4c27d8" x="461.272086" y="257.668612" style="fill: #400080; stroke: #400080"/>
     <use xlink:href="#m329d4c27d8" x="465.918897" y="261.070612" style="fill: #400080; stroke: #400080"/>
     <use xlink:href="#m329d4c27d8" x="470.579375" y="258.349012" style="fill: #400080; stroke: #400080"/>
     <use xlink:href="#m329d4c27d8" x="475.226186" y="259.709812" style="fill: #400080; stroke: #400080"/>
     <use xlink:href="#m329d4c27d8" x="479.872997" y="260.390212" style="fill: #400080; stroke: #400080"/>
     <use xlink:href="#m329d4c27d8" x="484.519808" y="259.256212" style="fill: #400080; stroke: #400080"/>
     <use xlink:href="#m329d4c27d8" x="489.166619" y="259.936612" style="fill: #400080; stroke: #400080"/>
     <use xlink:href="#m329d4c27d8" x="493.827097" y="35.177812" style="fill: #400080; stroke: #400080"/>
     <use xlink:href="#m329d4c27d8" x="498.473908" y="254.947012" style="fill: #400080; stroke: #400080"/>
     <use xlink:href="#m329d4c27d8" x="503.120719" y="256.761412" style="fill: #400080; stroke: #400080"/>
     <use xlink:href="#m329d4c27d8" x="507.76753" y="258.349012" style="fill: #400080; stroke: #400080"/>
     <use xlink:href="#m329d4c27d8" x="512.428008" y="256.081012" style="fill: #400080; stroke: #400080"/>
     <use xlink:href="#m329d4c27d8" x="517.074819" y="259.936612" style="fill: #400080; stroke: #400080"/>
     <use xlink:href="#m329d4c27d8" x="521.72163" y="260.163412" style="fill: #400080; stroke: #400080"/>
     <use xlink:href="#m329d4c27d8" x="526.368441" y="260.163412" style="fill: #400080; stroke: #400080"/>
     <use xlink:href="#m329d4c27d8" x="531.028919" y="260.390212" style="fill: #400080; stroke: #400080"/>
     <use xlink:href="#m329d4c27d8" x="535.67573" y="260.163412" style="fill: #400080; stroke: #400080"/>
     <use xlink:href="#m329d4c27d8" x="540.322541" y="259.936612" style="fill: #400080; stroke: #400080"/>
     <use xlink:href="#m329d4c27d8" x="544.969352" y="259.936612" style="fill: #400080; stroke: #400080"/>
     <use xlink:href="#m329d4c27d8" x="549.616163" y="260.163412" style="fill: #400080; stroke: #400080"/>
     <use xlink:href="#m329d4c27d8" x="554.276642" y="261.297412" style="fill: #400080; stroke: #400080"/>
     <use xlink:href="#m329d4c27d8" x="558.923453" y="261.297412" style="fill: #400080; stroke: #400080"/>
     <use xlink:href="#m329d4c27d8" x="563.570264" y="259.483012" style="fill: #400080; stroke: #400080"/>
     <use xlink:href="#m329d4c27d8" x="568.217075" y="260.617012" style="fill: #400080; stroke: #400080"/>
     <use xlink:href="#m329d4c27d8" x="572.877553" y="259.483012" style="fill: #400080; stroke: #400080"/>
     <use xlink:href="#m329d4c27d8" x="577.524364" y="260.843812" style="fill: #400080; stroke: #400080"/>
     <use xlink:href="#m329d4c27d8" x="582.171175" y="260.617012" style="fill: #400080; stroke: #400080"/>
     <use xlink:href="#m329d4c27d8" x="586.817986" y="260.163412" style="fill: #400080; stroke: #400080"/>
     <use xlink:href="#m329d4c27d8" x="591.478464" y="260.390212" style="fill: #400080; stroke: #400080"/>
     <use xlink:href="#m329d4c27d8" x="596.125275" y="261.070612" style="fill: #400080; stroke: #400080"/>
     <use xlink:href="#m329d4c27d8" x="600.772086" y="259.256212" style="fill: #400080; stroke: #400080"/>
     <use xlink:href="#m329d4c27d8" x="605.418897" y="260.163412" style="fill: #400080; stroke: #400080"/>
     <use xlink:href="#m329d4c27d8" x="610.079375" y="259.256212" style="fill: #400080; stroke: #400080"/>
    </g>
   </g>
   <g id="line2d_30">
    <path d="M 52.079375 260.843812 
L 56.726186 261.297412 
L 61.372997 261.297412 
L 66.019808 261.297412 
L 70.666619 261.070612 
L 75.327097 261.751012 
L 79.973908 259.936612 
L 84.620719 260.163412 
L 89.26753 255.173812 
L 93.928008 261.524212 
L 98.574819 256.761412 
L 103.22163 259.709812 
L 107.868441 259.256212 
L 112.528919 261.524212 
L 117.17573 260.843812 
L 121.822541 261.977812 
L 126.469352 261.297412 
L 131.116163 261.751012 
L 135.776642 261.977812 
L 140.423453 261.297412 
L 145.070264 260.843812 
L 149.717075 261.977812 
L 154.377553 260.617012 
L 159.024364 261.297412 
L 163.671175 261.751012 
L 168.317986 261.751012 
L 172.978464 261.524212 
L 177.625275 261.524212 
L 182.272086 261.524212 
L 186.918897 261.297412 
L 191.579375 256.534612 
L 196.226186 259.029412 
L 200.872997 260.843812 
L 205.519808 261.297412 
L 210.166619 261.070612 
L 214.827097 258.122212 
L 219.473908 261.070612 
L 224.120719 261.070612 
L 228.76753 261.751012 
L 233.428008 259.483012 
L 238.074819 259.936612 
L 242.72163 261.070612 
L 247.368441 260.843812 
L 252.028919 260.390212 
L 256.67573 261.070612 
L 261.322541 260.843812 
L 265.969352 261.070612 
L 270.616163 256.761412 
L 275.276642 260.843812 
L 279.923453 261.524212 
L 284.570264 258.349012 
L 289.217075 260.843812 
L 293.877553 261.297412 
L 298.524364 261.524212 
L 303.171175 256.081012 
L 307.817986 261.524212 
L 312.478464 261.297412 
L 317.125275 261.524212 
L 321.772086 261.297412 
L 326.418897 260.843812 
L 331.079375 260.163412 
L 335.726186 261.297412 
L 340.372997 260.390212 
L 345.019808 261.297412 
L 349.666619 261.297412 
L 354.327097 260.843812 
L 358.973908 261.070612 
L 363.620719 261.524212 
L 368.26753 261.524212 
L 372.928008 261.524212 
L 377.574819 260.843812 
L 382.22163 261.524212 
L 386.868441 261.297412 
L 391.528919 261.751012 
L 396.17573 261.297412 
L 400.822541 261.297412 
L 405.469352 261.524212 
L 410.116163 261.070612 
L 414.776642 260.163412 
L 419.423453 261.524212 
L 424.070264 260.163412 
L 428.717075 261.297412 
L 433.377553 257.895412 
L 438.024364 261.524212 
L 442.671175 261.297412 
L 447.317986 261.070612 
L 451.978464 261.297412 
L 456.625275 257.215012 
L 461.272086 259.256212 
L 465.918897 261.297412 
L 470.579375 260.163412 
L 475.226186 260.617012 
L 479.872997 260.843812 
L 484.519808 260.617012 
L 489.166619 260.617012 
L 493.827097 259.936612 
L 498.473908 257.215012 
L 503.120719 257.895412 
L 507.76753 259.709812 
L 512.428008 258.349012 
L 517.074819 260.617012 
L 521.72163 260.843812 
L 526.368441 261.070612 
L 531.028919 261.297412 
L 535.67573 261.297412 
L 540.322541 260.843812 
L 544.969352 261.751012 
L 549.616163 261.297412 
L 554.276642 261.751012 
L 558.923453 261.751012 
L 563.570264 259.709812 
L 568.217075 259.483012 
L 572.877553 259.029412 
L 577.524364 261.524212 
L 582.171175 261.297412 
L 586.817986 260.390212 
L 591.478464 261.297412 
L 596.125275 261.524212 
L 600.772086 259.483012 
L 605.418897 258.802612 
L 610.079375 260.163412 
" clip-path="url(#p9ae92bacbd)" style="fill: none; stroke: #ff8000; stroke-linecap: square"/>
    <defs>
     <path id="m5d7dec05b6" d="M 0 -1 
L -1 1 
L 1 1 
z
" style="stroke: #ff8000; stroke-linejoin: miter"/>
    </defs>
    <g clip-path="url(#p9ae92bacbd)">
     <use xlink:href="#m5d7dec05b6" x="52.079375" y="260.843812" style="fill: #ff8000; stroke: #ff8000; stroke-linejoin: miter"/>
     <use xlink:href="#m5d7dec05b6" x="56.726186" y="261.297412" style="fill: #ff8000; stroke: #ff8000; stroke-linejoin: miter"/>
     <use xlink:href="#m5d7dec05b6" x="61.372997" y="261.297412" style="fill: #ff8000; stroke: #ff8000; stroke-linejoin: miter"/>
     <use xlink:href="#m5d7dec05b6" x="66.019808" y="261.297412" style="fill: #ff8000; stroke: #ff8000; stroke-linejoin: miter"/>
     <use xlink:href="#m5d7dec05b6" x="70.666619" y="261.070612" style="fill: #ff8000; stroke: #ff8000; stroke-linejoin: miter"/>
     <use xlink:href="#m5d7dec05b6" x="75.327097" y="261.751012" style="fill: #ff8000; stroke: #ff8000; stroke-linejoin: miter"/>
     <use xlink:href="#m5d7dec05b6" x="79.973908" y="259.936612" style="fill: #ff8000; stroke: #ff8000; stroke-linejoin: miter"/>
     <use xlink:href="#m5d7dec05b6" x="84.620719" y="260.163412" style="fill: #ff8000; stroke: #ff8000; stroke-linejoin: miter"/>
     <use xlink:href="#m5d7dec05b6" x="89.26753" y="255.173812" style="fill: #ff8000; stroke: #ff8000; stroke-linejoin: miter"/>
     <use xlink:href="#m5d7dec05b6" x="93.928008" y="261.524212" style="fill: #ff8000; stroke: #ff8000; stroke-linejoin: miter"/>
     <use xlink:href="#m5d7dec05b6" x="98.574819" y="256.761412" style="fill: #ff8000; stroke: #ff8000; stroke-linejoin: miter"/>
     <use xlink:href="#m5d7dec05b6" x="103.22163" y="259.709812" style="fill: #ff8000; stroke: #ff8000; stroke-linejoin: miter"/>
     <use xlink:href="#m5d7dec05b6" x="107.868441" y="259.256212" style="fill: #ff8000; stroke: #ff8000; stroke-linejoin: miter"/>
     <use xlink:href="#m5d7dec05b6" x="112.528919" y="261.524212" style="fill: #ff8000; stroke: #ff8000; stroke-linejoin: miter"/>
     <use xlink:href="#m5d7dec05b6" x="117.17573" y="260.843812" style="fill: #ff8000; stroke: #ff8000; stroke-linejoin: miter"/>
     <use xlink:href="#m5d7dec05b6" x="121.822541" y="261.977812" style="fill: #ff8000; stroke: #ff8000; stroke-linejoin: miter"/>
     <use xlink:href="#m5d7dec05b6" x="126.469352" y="261.297412" style="fill: #ff8000; stroke: #ff8000; stroke-linejoin: miter"/>
     <use xlink:href="#m5d7dec05b6" x="131.116163" y="261.751012" style="fill: #ff8000; stroke: #ff8000; stroke-linejoin: miter"/>
     <use xlink:href="#m5d7dec05b6" x="135.776642" y="261.977812" style="fill: #ff8000; stroke: #ff8000; stroke-linejoin: miter"/>
     <use xlink:href="#m5d7dec05b6" x="140.423453" y="261.297412" style="fill: #ff8000; stroke: #ff8000; stroke-linejoin: miter"/>
     <use xlink:href="#m5d7dec05b6" x="145.070264" y="260.843812" style="fill: #ff8000; stroke: #ff8000; stroke-linejoin: miter"/>
     <use xlink:href="#m5d7dec05b6" x="149.717075" y="261.977812" style="fill: #ff8000; stroke: #ff8000; stroke-linejoin: miter"/>
     <use xlink:href="#m5d7dec05b6" x="154.377553" y="260.617012" style="fill: #ff8000; stroke: #ff8000; stroke-linejoin: miter"/>
     <use xlink:href="#m5d7dec05b6" x="159.024364" y="261.297412" style="fill: #ff8000; stroke: #ff8000; stroke-linejoin: miter"/>
     <use xlink:href="#m5d7dec05b6" x="163.671175" y="261.751012" style="fill: #ff8000; stroke: #ff8000; stroke-linejoin: miter"/>
     <use xlink:href="#m5d7dec05b6" x="168.317986" y="261.751012" style="fill: #ff8000; stroke: #ff8000; stroke-linejoin: miter"/>
     <use xlink:href="#m5d7dec05b6" x="172.978464" y="261.524212" style="fill: #ff8000; stroke: #ff8000; stroke-linejoin: miter"/>
     <use xlink:href="#m5d7dec05b6" x="177.625275" y="261.524212" style="fill: #ff8000; stroke: #ff8000; stroke-linejoin: miter"/>
     <use xlink:href="#m5d7dec05b6" x="182.272086" y="261.524212" style="fill: #ff8000; stroke: #ff8000; stroke-linejoin: miter"/>
     <use xlink:href="#m5d7dec05b6" x="186.918897" y="261.297412" style="fill: #ff8000; stroke: #ff8000; stroke-linejoin: miter"/>
     <use xlink:href="#m5d7dec05b6" x="191.579375" y="256.534612" style="fill: #ff8000; stroke: #ff8000; stroke-linejoin: miter"/>
     <use xlink:href="#m5d7dec05b6" x="196.226186" y="259.029412" style="fill: #ff8000; stroke: #ff8000; stroke-linejoin: miter"/>
     <use xlink:href="#m5d7dec05b6" x="200.872997" y="260.843812" style="fill: #ff8000; stroke: #ff8000; stroke-linejoin: miter"/>
     <use xlink:href="#m5d7dec05b6" x="205.519808" y="261.297412" style="fill: #ff8000; stroke: #ff8000; stroke-linejoin: miter"/>
     <use xlink:href="#m5d7dec05b6" x="210.166619" y="261.070612" style="fill: #ff8000; stroke: #ff8000; stroke-linejoin: miter"/>
     <use xlink:href="#m5d7dec05b6" x="214.827097" y="258.122212" style="fill: #ff8000; stroke: #ff8000; stroke-linejoin: miter"/>
     <use xlink:href="#m5d7dec05b6" x="219.473908" y="261.070612" style="fill: #ff8000; stroke: #ff8000; stroke-linejoin: miter"/>
     <use xlink:href="#m5d7dec05b6" x="224.120719" y="261.070612" style="fill: #ff8000; stroke: #ff8000; stroke-linejoin: miter"/>
     <use xlink:href="#m5d7dec05b6" x="228.76753" y="261.751012" style="fill: #ff8000; stroke: #ff8000; stroke-linejoin: miter"/>
     <use xlink:href="#m5d7dec05b6" x="233.428008" y="259.483012" style="fill: #ff8000; stroke: #ff8000; stroke-linejoin: miter"/>
     <use xlink:href="#m5d7dec05b6" x="238.074819" y="259.936612" style="fill: #ff8000; stroke: #ff8000; stroke-linejoin: miter"/>
     <use xlink:href="#m5d7dec05b6" x="242.72163" y="261.070612" style="fill: #ff8000; stroke: #ff8000; stroke-linejoin: miter"/>
     <use xlink:href="#m5d7dec05b6" x="247.368441" y="260.843812" style="fill: #ff8000; stroke: #ff8000; stroke-linejoin: miter"/>
     <use xlink:href="#m5d7dec05b6" x="252.028919" y="260.390212" style="fill: #ff8000; stroke: #ff8000; stroke-linejoin: miter"/>
     <use xlink:href="#m5d7dec05b6" x="256.67573" y="261.070612" style="fill: #ff8000; stroke: #ff8000; stroke-linejoin: miter"/>
     <use xlink:href="#m5d7dec05b6" x="261.322541" y="260.843812" style="fill: #ff8000; stroke: #ff8000; stroke-linejoin: miter"/>
     <use xlink:href="#m5d7dec05b6" x="265.969352" y="261.070612" style="fill: #ff8000; stroke: #ff8000; stroke-linejoin: miter"/>
     <use xlink:href="#m5d7dec05b6" x="270.616163" y="256.761412" style="fill: #ff8000; stroke: #ff8000; stroke-linejoin: miter"/>
     <use xlink:href="#m5d7dec05b6" x="275.276642" y="260.843812" style="fill: #ff8000; stroke: #ff8000; stroke-linejoin: miter"/>
     <use xlink:href="#m5d7dec05b6" x="279.923453" y="261.524212" style="fill: #ff8000; stroke: #ff8000; stroke-linejoin: miter"/>
     <use xlink:href="#m5d7dec05b6" x="284.570264" y="258.349012" style="fill: #ff8000; stroke: #ff8000; stroke-linejoin: miter"/>
     <use xlink:href="#m5d7dec05b6" x="289.217075" y="260.843812" style="fill: #ff8000; stroke: #ff8000; stroke-linejoin: miter"/>
     <use xlink:href="#m5d7dec05b6" x="293.877553" y="261.297412" style="fill: #ff8000; stroke: #ff8000; stroke-linejoin: miter"/>
     <use xlink:href="#m5d7dec05b6" x="298.524364" y="261.524212" style="fill: #ff8000; stroke: #ff8000; stroke-linejoin: miter"/>
     <use xlink:href="#m5d7dec05b6" x="303.171175" y="256.081012" style="fill: #ff8000; stroke: #ff8000; stroke-linejoin: miter"/>
     <use xlink:href="#m5d7dec05b6" x="307.817986" y="261.524212" style="fill: #ff8000; stroke: #ff8000; stroke-linejoin: miter"/>
     <use xlink:href="#m5d7dec05b6" x="312.478464" y="261.297412" style="fill: #ff8000; stroke: #ff8000; stroke-linejoin: miter"/>
     <use xlink:href="#m5d7dec05b6" x="317.125275" y="261.524212" style="fill: #ff8000; stroke: #ff8000; stroke-linejoin: miter"/>
     <use xlink:href="#m5d7dec05b6" x="321.772086" y="261.297412" style="fill: #ff8000; stroke: #ff8000; stroke-linejoin: miter"/>
     <use xlink:href="#m5d7dec05b6" x="326.418897" y="260.843812" style="fill: #ff8000; stroke: #ff8000; stroke-linejoin: miter"/>
     <use xlink:href="#m5d7dec05b6" x="331.079375" y="260.163412" style="fill: #ff8000; stroke: #ff8000; stroke-linejoin: miter"/>
     <use xlink:href="#m5d7dec05b6" x="335.726186" y="261.297412" style="fill: #ff8000; stroke: #ff8000; stroke-linejoin: miter"/>
     <use xlink:href="#m5d7dec05b6" x="340.372997" y="260.390212" style="fill: #ff8000; stroke: #ff8000; stroke-linejoin: miter"/>
     <use xlink:href="#m5d7dec05b6" x="345.019808" y="261.297412" style="fill: #ff8000; stroke: #ff8000; stroke-linejoin: miter"/>
     <use xlink:href="#m5d7dec05b6" x="349.666619" y="261.297412" style="fill: #ff8000; stroke: #ff8000; stroke-linejoin: miter"/>
     <use xlink:href="#m5d7dec05b6" x="354.327097" y="260.843812" style="fill: #ff8000; stroke: #ff8000; stroke-linejoin: miter"/>
     <use xlink:href="#m5d7dec05b6" x="358.973908" y="261.070612" style="fill: #ff8000; stroke: #ff8000; stroke-linejoin: miter"/>
     <use xlink:href="#m5d7dec05b6" x="363.620719" y="261.524212" style="fill: #ff8000; stroke: #ff8000; stroke-linejoin: miter"/>
     <use xlink:href="#m5d7dec05b6" x="368.26753" y="261.524212" style="fill: #ff8000; stroke: #ff8000; stroke-linejoin: miter"/>
     <use xlink:href="#m5d7dec05b6" x="372.928008" y="261.524212" style="fill: #ff8000; stroke: #ff8000; stroke-linejoin: miter"/>
     <use xlink:href="#m5d7dec05b6" x="377.574819" y="260.843812" style="fill: #ff8000; stroke: #ff8000; stroke-linejoin: miter"/>
     <use xlink:href="#m5d7dec05b6" x="382.22163" y="261.524212" style="fill: #ff8000; stroke: #ff8000; stroke-linejoin: miter"/>
     <use xlink:href="#m5d7dec05b6" x="386.868441" y="261.297412" style="fill: #ff8000; stroke: #ff8000; stroke-linejoin: miter"/>
     <use xlink:href="#m5d7dec05b6" x="391.528919" y="261.751012" style="fill: #ff8000; stroke: #ff8000; stroke-linejoin: miter"/>
     <use xlink:href="#m5d7dec05b6" x="396.17573" y="261.297412" style="fill: #ff8000; stroke: #ff8000; stroke-linejoin: miter"/>
     <use xlink:href="#m5d7dec05b6" x="400.822541" y="261.297412" style="fill: #ff8000; stroke: #ff8000; stroke-linejoin: miter"/>
     <use xlink:href="#m5d7dec05b6" x="405.469352" y="261.524212" style="fill: #ff8000; stroke: #ff8000; stroke-linejoin: miter"/>
     <use xlink:href="#m5d7dec05b6" x="410.116163" y="261.070612" style="fill: #ff8000; stroke: #ff8000; stroke-linejoin: miter"/>
     <use xlink:href="#m5d7dec05b6" x="414.776642" y="260.163412" style="fill: #ff8000; stroke: #ff8000; stroke-linejoin: miter"/>
     <use xlink:href="#m5d7dec05b6" x="419.423453" y="261.524212" style="fill: #ff8000; stroke: #ff8000; stroke-linejoin: miter"/>
     <use xlink:href="#m5d7dec05b6" x="424.070264" y="260.163412" style="fill: #ff8000; stroke: #ff8000; stroke-linejoin: miter"/>
     <use xlink:href="#m5d7dec05b6" x="428.717075" y="261.297412" style="fill: #ff8000; stroke: #ff8000; stroke-linejoin: miter"/>
     <use xlink:href="#m5d7dec05b6" x="433.377553" y="257.895412" style="fill: #ff8000; stroke: #ff8000; stroke-linejoin: miter"/>
     <use xlink:href="#m5d7dec05b6" x="438.024364" y="261.524212" style="fill: #ff8000; stroke: #ff8000; stroke-linejoin: miter"/>
     <use xlink:href="#m5d7dec05b6" x="442.671175" y="261.297412" style="fill: #ff8000; stroke: #ff8000; stroke-linejoin: miter"/>
     <use xlink:href="#m5d7dec05b6" x="447.317986" y="261.070612" style="fill: #ff8000; stroke: #ff8000; stroke-linejoin: miter"/>
     <use xlink:href="#m5d7dec05b6" x="451.978464" y="261.297412" style="fill: #ff8000; stroke: #ff8000; stroke-linejoin: miter"/>
     <use xlink:href="#m5d7dec05b6" x="456.625275" y="257.215012" style="fill: #ff8000; stroke: #ff8000; stroke-linejoin: miter"/>
     <use xlink:href="#m5d7dec05b6" x="461.272086" y="259.256212" style="fill: #ff8000; stroke: #ff8000; stroke-linejoin: miter"/>
     <use xlink:href="#m5d7dec05b6" x="465.918897" y="261.297412" style="fill: #ff8000; stroke: #ff8000; stroke-linejoin: miter"/>
     <use xlink:href="#m5d7dec05b6" x="470.579375" y="260.163412" style="fill: #ff8000; stroke: #ff8000; stroke-linejoin: miter"/>
     <use xlink:href="#m5d7dec05b6" x="475.226186" y="260.617012" style="fill: #ff8000; stroke: #ff8000; stroke-linejoin: miter"/>
     <use xlink:href="#m5d7dec05b6" x="479.872997" y="260.843812" style="fill: #ff8000; stroke: #ff8000; stroke-linejoin: miter"/>
     <use xlink:href="#m5d7dec05b6" x="484.519808" y="260.617012" style="fill: #ff8000; stroke: #ff8000; stroke-linejoin: miter"/>
     <use xlink:href="#m5d7dec05b6" x="489.166619" y="260.617012" style="fill: #ff8000; stroke: #ff8000; stroke-linejoin: miter"/>
     <use xlink:href="#m5d7dec05b6" x="493.827097" y="259.936612" style="fill: #ff8000; stroke: #ff8000; stroke-linejoin: miter"/>
     <use xlink:href="#m5d7dec05b6" x="498.473908" y="257.215012" style="fill: #ff8000; stroke: #ff8000; stroke-linejoin: miter"/>
     <use xlink:href="#m5d7dec05b6" x="503.120719" y="257.895412" style="fill: #ff8000; stroke: #ff8000; stroke-linejoin: miter"/>
     <use xlink:href="#m5d7dec05b6" x="507.76753" y="259.709812" style="fill: #ff8000; stroke: #ff8000; stroke-linejoin: miter"/>
     <use xlink:href="#m5d7dec05b6" x="512.428008" y="258.349012" style="fill: #ff8000; stroke: #ff8000; stroke-linejoin: miter"/>
     <use xlink:href="#m5d7dec05b6" x="517.074819" y="260.617012" style="fill: #ff8000; stroke: #ff8000; stroke-linejoin: miter"/>
     <use xlink:href="#m5d7dec05b6" x="521.72163" y="260.843812" style="fill: #ff8000; stroke: #ff8000; stroke-linejoin: miter"/>
     <use xlink:href="#m5d7dec05b6" x="526.368441" y="261.070612" style="fill: #ff8000; stroke: #ff8000; stroke-linejoin: miter"/>
     <use xlink:href="#m5d7dec05b6" x="531.028919" y="261.297412" style="fill: #ff8000; stroke: #ff8000; stroke-linejoin: miter"/>
     <use xlink:href="#m5d7dec05b6" x="535.67573" y="261.297412" style="fill: #ff8000; stroke: #ff8000; stroke-linejoin: miter"/>
     <use xlink:href="#m5d7dec05b6" x="540.322541" y="260.843812" style="fill: #ff8000; stroke: #ff8000; stroke-linejoin: miter"/>
     <use xlink:href="#m5d7dec05b6" x="544.969352" y="261.751012" style="fill: #ff8000; stroke: #ff8000; stroke-linejoin: miter"/>
     <use xlink:href="#m5d7dec05b6" x="549.616163" y="261.297412" style="fill: #ff8000; stroke: #ff8000; stroke-linejoin: miter"/>
     <use xlink:href="#m5d7dec05b6" x="554.276642" y="261.751012" style="fill: #ff8000; stroke: #ff8000; stroke-linejoin: miter"/>
     <use xlink:href="#m5d7dec05b6" x="558.923453" y="261.751012" style="fill: #ff8000; stroke: #ff8000; stroke-linejoin: miter"/>
     <use xlink:href="#m5d7dec05b6" x="563.570264" y="259.709812" style="fill: #ff8000; stroke: #ff8000; stroke-linejoin: miter"/>
     <use xlink:href="#m5d7dec05b6" x="568.217075" y="259.483012" style="fill: #ff8000; stroke: #ff8000; stroke-linejoin: miter"/>
     <use xlink:href="#m5d7dec05b6" x="572.877553" y="259.029412" style="fill: #ff8000; stroke: #ff8000; stroke-linejoin: miter"/>
     <use xlink:href="#m5d7dec05b6" x="577.524364" y="261.524212" style="fill: #ff8000; stroke: #ff8000; stroke-linejoin: miter"/>
     <use xlink:href="#m5d7dec05b6" x="582.171175" y="261.297412" style="fill: #ff8000; stroke: #ff8000; stroke-linejoin: miter"/>
     <use xlink:href="#m5d7dec05b6" x="586.817986" y="260.390212" style="fill: #ff8000; stroke: #ff8000; stroke-linejoin: miter"/>
     <use xlink:href="#m5d7dec05b6" x="591.478464" y="261.297412" style="fill: #ff8000; stroke: #ff8000; stroke-linejoin: miter"/>
     <use xlink:href="#m5d7dec05b6" x="596.125275" y="261.524212" style="fill: #ff8000; stroke: #ff8000; stroke-linejoin: miter"/>
     <use xlink:href="#m5d7dec05b6" x="600.772086" y="259.483012" style="fill: #ff8000; stroke: #ff8000; stroke-linejoin: miter"/>
     <use xlink:href="#m5d7dec05b6" x="605.418897" y="258.802612" style="fill: #ff8000; stroke: #ff8000; stroke-linejoin: miter"/>
     <use xlink:href="#m5d7dec05b6" x="610.079375" y="260.163412" style="fill: #ff8000; stroke: #ff8000; stroke-linejoin: miter"/>
    </g>
   </g>
   <g id="patch_3">
    <path d="M 52.079375 273.317812 
L 52.079375 23.837812 
" style="fill: none; stroke: #ffffff; stroke-width: 0.8; stroke-linejoin: miter; stroke-linecap: square"/>
   </g>
   <g id="patch_4">
    <path d="M 610.079375 273.317812 
L 610.079375 23.837812 
" style="fill: none; stroke: #ffffff; stroke-width: 0.8; stroke-linejoin: miter; stroke-linecap: square"/>
   </g>
   <g id="patch_5">
    <path d="M 52.079375 273.317812 
L 610.079375 273.317812 
" style="fill: none; stroke: #ffffff; stroke-width: 0.8; stroke-linejoin: miter; stroke-linecap: square"/>
   </g>
   <g id="patch_6">
    <path d="M 52.079375 23.837812 
L 610.079375 23.837812 
" style="fill: none; stroke: #ffffff; stroke-width: 0.8; stroke-linejoin: miter; stroke-linecap: square"/>
   </g>
   <g id="text_17">
    <!-- My Graph -->
    <g style="fill: #ffffff" transform="translate(297.200469 17.837812) scale(0.14 -0.14)">
     <defs>
      <path id="DejaVuSans-4d" d="M 628 4666 
L 1569 4666 
L 2759 1491 
L 3956 4666 
L 4897 4666 
L 4897 0 
L 4281 0 
L 4281 4097 
L 3078 897 
L 2444 897 
L 1241 4097 
L 1241 0 
L 628 0 
L 628 4666 
z
" transform="scale(0.015625)"/>
      <path id="DejaVuSans-79" d="M 2059 -325 
Q 1816 -950 1584 -1140 
Q 1353 -1331 966 -1331 
L 506 -1331 
L 506 -850 
L 844 -850 
Q 1081 -850 1212 -737 
Q 1344 -625 1503 -206 
L 1606 56 
L 191 3500 
L 800 3500 
L 1894 763 
L 2988 3500 
L 3597 3500 
L 2059 -325 
z
" transform="scale(0.015625)"/>
      <path id="DejaVuSans-47" d="M 3809 666 
L 3809 1919 
L 2778 1919 
L 2778 2438 
L 4434 2438 
L 4434 434 
Q 4069 175 3628 42 
Q 3188 -91 2688 -91 
Q 1594 -91 976 548 
Q 359 1188 359 2328 
Q 359 3472 976 4111 
Q 1594 4750 2688 4750 
Q 3144 4750 3555 4637 
Q 3966 4525 4313 4306 
L 4313 3634 
Q 3963 3931 3569 4081 
Q 3175 4231 2741 4231 
Q 1884 4231 1454 3753 
Q 1025 3275 1025 2328 
Q 1025 1384 1454 906 
Q 1884 428 2741 428 
Q 3075 428 3337 486 
Q 3600 544 3809 666 
z
" transform="scale(0.015625)"/>
      <path id="DejaVuSans-72" d="M 2631 2963 
Q 2534 3019 2420 3045 
Q 2306 3072 2169 3072 
Q 1681 3072 1420 2755 
Q 1159 2438 1159 1844 
L 1159 0 
L 581 0 
L 581 3500 
L 1159 3500 
L 1159 2956 
Q 1341 3275 1631 3429 
Q 1922 3584 2338 3584 
Q 2397 3584 2469 3576 
Q 2541 3569 2628 3553 
L 2631 2963 
z
" transform="scale(0.015625)"/>
      <path id="DejaVuSans-61" d="M 2194 1759 
Q 1497 1759 1228 1600 
Q 959 1441 959 1056 
Q 959 750 1161 570 
Q 1363 391 1709 391 
Q 2188 391 2477 730 
Q 2766 1069 2766 1631 
L 2766 1759 
L 2194 1759 
z
M 3341 1997 
L 3341 0 
L 2766 0 
L 2766 531 
Q 2569 213 2275 61 
Q 1981 -91 1556 -91 
Q 1019 -91 701 211 
Q 384 513 384 1019 
Q 384 1609 779 1909 
Q 1175 2209 1959 2209 
L 2766 2209 
L 2766 2266 
Q 2766 2663 2505 2880 
Q 2244 3097 1772 3097 
Q 1472 3097 1187 3025 
Q 903 2953 641 2809 
L 641 3341 
Q 956 3463 1253 3523 
Q 1550 3584 1831 3584 
Q 2591 3584 2966 3190 
Q 3341 2797 3341 1997 
z
" transform="scale(0.015625)"/>
      <path id="DejaVuSans-70" d="M 1159 525 
L 1159 -1331 
L 581 -1331 
L 581 3500 
L 1159 3500 
L 1159 2969 
Q 1341 3281 1617 3432 
Q 1894 3584 2278 3584 
Q 2916 3584 3314 3078 
Q 3713 2572 3713 1747 
Q 3713 922 3314 415 
Q 2916 -91 2278 -91 
Q 1894 -91 1617 61 
Q 1341 213 1159 525 
z
M 3116 1747 
Q 3116 2381 2855 2742 
Q 2594 3103 2138 3103 
Q 1681 3103 1420 2742 
Q 1159 2381 1159 1747 
Q 1159 1113 1420 752 
Q 1681 391 2138 391 
Q 2594 391 2855 752 
Q 3116 1113 3116 1747 
z
" transform="scale(0.015625)"/>
      <path id="DejaVuSans-68" d="M 3513 2113 
L 3513 0 
L 2938 0 
L 2938 2094 
Q 2938 2591 2744 2837 
Q 2550 3084 2163 3084 
Q 1697 3084 1428 2787 
Q 1159 2491 1159 1978 
L 1159 0 
L 581 0 
L 581 4863 
L 1159 4863 
L 1159 2956 
Q 1366 3272 1645 3428 
Q 1925 3584 2291 3584 
Q 2894 3584 3203 3211 
Q 3513 2838 3513 2113 
z
" transform="scale(0.015625)"/>
     </defs>
     <use xlink:href="#DejaVuSans-4d"/>
     <use xlink:href="#DejaVuSans-79" transform="translate(86.279297 0)"/>
     <use xlink:href="#DejaVuSans-20" transform="translate(145.458984 0)"/>
     <use xlink:href="#DejaVuSans-47" transform="translate(177.246094 0)"/>
     <use xlink:href="#DejaVuSans-72" transform="translate(254.736328 0)"/>
     <use xlink:href="#DejaVuSans-61" transform="translate(295.849609 0)"/>
     <use xlink:href="#DejaVuSans-70" transform="translate(357.128906 0)"/>
     <use xlink:href="#DejaVuSans-68" transform="translate(420.605469 0)"/>
    </g>
   </g>
   <g id="legend_1">
    <g id="patch_7">
     <path d="M 59.079375 61.194062 
L 193.0825 61.194062 
Q 195.0825 61.194062 195.0825 59.194062 
L 195.0825 30.837812 
Q 195.0825 28.837812 193.0825 28.837812 
L 59.079375 28.837812 
Q 57.079375 28.837812 57.079375 30.837812 
L 57.079375 59.194062 
Q 57.079375 61.194062 59.079375 61.194062 
z
" style="fill: #222222; opacity: 0.8"/>
    </g>
    <g id="line2d_31">
     <path d="M 61.079375 36.93625 
L 71.079375 36.93625 
L 81.079375 36.93625 
" style="fill: none; stroke: #400080; stroke-linecap: square"/>
     <g>
      <use xlink:href="#m329d4c27d8" x="71.079375" y="36.93625" style="fill: #400080; stroke: #400080"/>
     </g>
    </g>
    <g id="text_18">
     <!-- Multi Threaded C++ -->
     <g transform="translate(89.079375 40.43625) scale(0.1 -0.1)">
      <defs>
       <path id="DejaVuSans-6c" d="M 603 4863 
L 1178 4863 
L 1178 0 
L 603 0 
L 603 4863 
z
" transform="scale(0.015625)"/>
       <path id="DejaVuSans-64" d="M 2906 2969 
L 2906 4863 
L 3481 4863 
L 3481 0 
L 2906 0 
L 2906 525 
Q 2725 213 2448 61 
Q 2172 -91 1784 -91 
Q 1150 -91 751 415 
Q 353 922 353 1747 
Q 353 2572 751 3078 
Q 1150 3584 1784 3584 
Q 2172 3584 2448 3432 
Q 2725 3281 2906 2969 
z
M 947 1747 
Q 947 1113 1208 752 
Q 1469 391 1925 391 
Q 2381 391 2643 752 
Q 2906 1113 2906 1747 
Q 2906 2381 2643 2742 
Q 2381 3103 1925 3103 
Q 1469 3103 1208 2742 
Q 947 2381 947 1747 
z
" transform="scale(0.015625)"/>
       <path id="DejaVuSans-2b" d="M 2944 4013 
L 2944 2272 
L 4684 2272 
L 4684 1741 
L 2944 1741 
L 2944 0 
L 2419 0 
L 2419 1741 
L 678 1741 
L 678 2272 
L 2419 2272 
L 2419 4013 
L 2944 4013 
z
" transform="scale(0.015625)"/>
      </defs>
      <use xlink:href="#DejaVuSans-4d"/>
      <use xlink:href="#DejaVuSans-75" transform="translate(86.279297 0)"/>
      <use xlink:href="#DejaVuSans-6c" transform="translate(149.658203 0)"/>
      <use xlink:href="#DejaVuSans-74" transform="translate(177.441406 0)"/>
      <use xlink:href="#DejaVuSans-69" transform="translate(216.650391 0)"/>
      <use xlink:href="#DejaVuSans-20" transform="translate(244.433594 0)"/>
      <use xlink:href="#DejaVuSans-54" transform="translate(276.220703 0)"/>
      <use xlink:href="#DejaVuSans-68" transform="translate(337.304688 0)"/>
      <use xlink:href="#DejaVuSans-72" transform="translate(400.683594 0)"/>
      <use xlink:href="#DejaVuSans-65" transform="translate(439.546875 0)"/>
      <use xlink:href="#DejaVuSans-61" transform="translate(501.070312 0)"/>
      <use xlink:href="#DejaVuSans-64" transform="translate(562.349609 0)"/>
      <use xlink:href="#DejaVuSans-65" transform="translate(625.826172 0)"/>
      <use xlink:href="#DejaVuSans-64" transform="translate(687.349609 0)"/>
      <use xlink:href="#DejaVuSans-20" transform="translate(750.826172 0)"/>
      <use xlink:href="#DejaVuSans-43" transform="translate(782.613281 0)"/>
      <use xlink:href="#DejaVuSans-2b" transform="translate(852.4375 0)"/>
      <use xlink:href="#DejaVuSans-2b" transform="translate(936.226562 0)"/>
     </g>
    </g>
    <g id="line2d_32">
     <path d="M 61.079375 51.614375 
L 71.079375 51.614375 
L 81.079375 51.614375 
" style="fill: none; stroke: #ff8000; stroke-linecap: square"/>
     <g>
      <use xlink:href="#m5d7dec05b6" x="71.079375" y="51.614375" style="fill: #ff8000; stroke: #ff8000; stroke-linejoin: miter"/>
     </g>
    </g>
    <g id="text_19">
     <!-- Vex -->
     <g transform="translate(89.079375 55.114375) scale(0.1 -0.1)">
      <defs>
       <path id="DejaVuSans-56" d="M 1831 0 
L 50 4666 
L 709 4666 
L 2188 738 
L 3669 4666 
L 4325 4666 
L 2547 0 
L 1831 0 
z
" transform="scale(0.015625)"/>
       <path id="DejaVuSans-78" d="M 3513 3500 
L 2247 1797 
L 3578 0 
L 2900 0 
L 1881 1375 
L 863 0 
L 184 0 
L 1544 1831 
L 300 3500 
L 978 3500 
L 1906 2253 
L 2834 3500 
L 3513 3500 
z
" transform="scale(0.015625)"/>
      </defs>
      <use xlink:href="#DejaVuSans-56"/>
      <use xlink:href="#DejaVuSans-65" transform="translate(60.658203 0)"/>
      <use xlink:href="#DejaVuSans-78" transform="translate(120.431641 0)"/>
     </g>
    </g>
   </g>
  </g>
 </g>
 <defs>
  <clipPath id="p9ae92bacbd">
   <rect x="52.079375" y="23.837812" width="558" height="249.48"/>
  </clipPath>
 </defs>
</svg>
